<svg width="39" height="39" viewBox="0 0 39 39" fill="none" xmlns="http://www.w3.org/2000/svg">
<path d="M17.875 3.25H14.625V6.5H11.375V9.75H8.125V13H1.625V26H8.125V29.25H11.375V32.5H14.625V35.75H17.875V3.25ZM11.375 29.25V26H8.125V22.75H4.875V16.25H8.125V13H11.375V9.75H14.625V29.25H11.375ZM21.125 16.25H24.375V22.75H21.125V16.25ZM34.125 6.5H30.875V3.25H21.125V6.5H30.875V9.75H34.125V29.25H30.875V32.5H21.125V35.75H30.875V32.5H34.125V29.25H37.375V9.75H34.125V6.5ZM30.875 13H27.625V9.75H21.125V13H27.625V26H21.125V29.25H27.625V26H30.875V13Z" fill="white"/>
</svg>
